<svg width="243" height="34" viewBox="0 0 243 34" fill="none" xmlns="http://www.w3.org/2000/svg">
<path fill-rule="evenodd" clip-rule="evenodd" d="M46.0002 16.3415C46.0002 17.8037 45.0086 19.5202 42.5549 19.5202C40.0633 19.5202 38.5 17.9434 38.5 15.0068C38.5 12.0831 40.0253 10.4683 42.5298 10.4683C45.5302 10.4683 45.9622 13.1384 45.9622 13.5962L44.068 13.8885C44.068 13.8885 44.0551 12.2737 42.5421 12.2737C41.4108 12.2737 40.6228 13.1506 40.6228 15.0068C40.6228 16.8759 41.4997 17.7148 42.6058 17.7148C43.737 17.7148 44.0937 17.0027 44.0937 16.3415V16.252H42.2118V14.7531H46.0002V16.3415Z" fill="#002740"/>
<path fill-rule="evenodd" clip-rule="evenodd" d="M50.3883 14.7146C51.3804 14.7146 52.0919 14.2819 52.0919 13.4681C52.0919 12.6549 51.5073 12.172 50.528 12.172H49.4225V14.7146H50.3883ZM54.9267 19.4064C54.9267 19.4064 54.5964 19.5068 53.8972 19.5068C51.0624 19.5068 51.9264 16.2522 50.096 16.2522H49.4225V19.4437H47.3757V10.5445H50.6168C52.9057 10.5445 54.1007 11.3583 54.1007 13.4057C54.1007 14.7147 53.2231 15.401 52.6385 15.6547C53.4394 16.4563 53.4394 17.8418 54.5456 17.8418H54.9267V19.4064Z" fill="#002740"/>
<path fill-rule="evenodd" clip-rule="evenodd" d="M61.3618 15.0069C61.3618 12.973 60.4849 12.2738 59.4296 12.2738C58.3866 12.2738 57.5096 12.973 57.5096 15.0069C57.5096 17.0279 58.3743 17.7652 59.4296 17.7652C60.4971 17.7652 61.3618 17.0279 61.3618 15.0069M55.3867 15.0069C55.3867 11.9815 57.1792 10.4685 59.4294 10.4685C61.6919 10.4685 63.4844 11.9815 63.4844 15.0069C63.4844 18.033 61.6797 19.5203 59.4294 19.5203C57.1914 19.5203 55.3867 18.033 55.3867 15.0069" fill="#002740"/>
<path fill-rule="evenodd" clip-rule="evenodd" d="M69.7034 10.5447H71.7502V15.7567C71.7502 18.5928 70.1612 19.5206 68.2541 19.5206C66.3605 19.5206 64.72 18.5928 64.7329 15.7567L64.7458 10.5447H66.7926V15.9092C66.7926 16.8885 67.1357 17.6895 68.2541 17.6895C69.3731 17.6895 69.7034 16.8885 69.7034 15.9092V10.5447Z" fill="#002740"/>
<path fill-rule="evenodd" clip-rule="evenodd" d="M76.4941 15.0705C77.5493 15.0705 78.1211 14.5876 78.1211 13.6598C78.1211 12.7951 77.5873 12.1719 76.4181 12.1719H75.4388V15.0705H76.4941ZM73.3926 19.4435V10.5449H76.5835C78.7951 10.5449 80.1813 11.5493 80.1813 13.6598C80.1813 15.744 78.6683 16.6846 76.8629 16.6846H75.4388V19.4435H73.3926Z" fill="#002740"/>
<path fill-rule="evenodd" clip-rule="evenodd" d="M81.314 19.4438V10.5446H87.0726V12.1722H83.3608V14.2319H86.1957V15.8338H83.3608V17.8168H87.0726V19.4438H81.314Z" fill="#002740"/>
<path fill-rule="evenodd" clip-rule="evenodd" d="M94.2195 17.8165C95.4525 17.8165 96.3294 16.8759 96.3294 15.1343C96.3294 13.3669 95.6688 12.1719 93.8506 12.1719H93.1894V17.8165H94.2195ZM91.1434 19.4436V10.545H93.8765C96.2027 10.545 98.3383 11.7908 98.3383 15.1601C98.3383 18.3761 96.3682 19.4436 94.2325 19.4436H91.1434Z" fill="#002740"/>
<path fill-rule="evenodd" clip-rule="evenodd" d="M99.6755 19.4438V10.5446H105.434V12.1722H101.722V14.2319H104.557V15.8338H101.722V17.8168H105.434V19.4438H99.6755Z" fill="#002740"/>
<path fill-rule="evenodd" clip-rule="evenodd" d="M109.505 19.4438V10.5446H111.552V17.8168H115.302V19.4438H109.505Z" fill="#002740"/>
<path fill-rule="evenodd" clip-rule="evenodd" d="M118.8 15.8084H120.758L119.779 12.9098L118.8 15.8084ZM121.253 17.3336H118.291L117.605 19.4435H115.456L118.724 10.5449H120.834L124.088 19.4435H121.952L121.253 17.3336Z" fill="#002740"/>
<path fill-rule="evenodd" clip-rule="evenodd" d="M130.803 17.8165C131.617 17.8165 132.112 17.5358 132.112 16.6975C132.112 15.8965 131.541 15.5791 130.752 15.5791H129.418V17.8165H130.803ZM130.562 14.155C131.413 14.155 131.719 13.7867 131.719 13.1641C131.719 12.528 131.299 12.1719 130.371 12.1719H129.418V14.155H130.562ZM127.371 19.4436V10.545H130.943C132.761 10.545 133.829 11.2313 133.829 12.9227C133.829 14.4731 132.876 14.7145 132.418 14.7145V14.7396C133.016 14.7396 134.426 15.2869 134.426 16.9261C134.426 18.7952 133.003 19.4436 131.363 19.4436H127.371Z" fill="#002740"/>
<path fill-rule="evenodd" clip-rule="evenodd" d="M138.039 15.8084H139.997L139.018 12.9098L138.039 15.8084ZM140.493 17.3336H137.531L136.844 19.4435H134.696L137.963 10.5449H140.073L143.328 19.4435H141.191L140.493 17.3336Z" fill="#002740"/>
<path fill-rule="evenodd" clip-rule="evenodd" d="M149.241 19.4438L146.279 14.3716V19.4438H144.232V10.5446H146.317L149.28 15.8338V10.5446H151.326V19.4438H149.241Z" fill="#002740"/>
<path fill-rule="evenodd" clip-rule="evenodd" d="M158.638 14.9561C158.638 12.9228 157.761 12.2236 156.705 12.2236C155.663 12.2236 154.786 12.9228 154.786 14.9561C154.786 16.9778 155.65 17.715 156.705 17.715C157.773 17.715 158.638 16.9778 158.638 14.9561V14.9561ZM159.617 22.4175C156.883 22.4175 155.79 20.7274 155.675 19.3548C153.934 18.9607 152.663 17.5237 152.663 14.956C152.663 11.9306 154.455 10.4175 156.705 10.4175C158.969 10.4175 160.76 11.9306 160.76 14.956C160.76 17.6505 159.324 19.1256 157.443 19.4185C157.607 20.2446 158.358 20.7905 159.617 20.7905V22.4175Z" fill="#002740"/>
<path fill-rule="evenodd" clip-rule="evenodd" d="M166.979 10.5447H169.026V15.7567C169.026 18.5928 167.437 19.5206 165.53 19.5206C163.637 19.5206 161.996 18.5928 162.009 15.7567L162.022 10.5447H164.069V15.9092C164.069 16.8885 164.412 17.6895 165.53 17.6895C166.648 17.6895 166.979 16.8885 166.979 15.9092V10.5447Z" fill="#002740"/>
<path fill-rule="evenodd" clip-rule="evenodd" d="M170.668 19.4438V10.5446H176.427V12.1722H172.715V14.2319H175.55V15.8338H172.715V17.8168H176.427V19.4438H170.668Z" fill="#002740"/>
<path fill-rule="evenodd" clip-rule="evenodd" d="M182.544 14.6895V19.4436H180.497V10.5451H182.57L185.075 15.7943L187.706 10.5451H189.65V19.4436H187.604L187.654 14.448L185.71 18.3639H184.337L182.544 14.6895Z" fill="#002740"/>
<path fill-rule="evenodd" clip-rule="evenodd" d="M196.976 15.0069C196.976 12.973 196.099 12.2738 195.044 12.2738C194.002 12.2738 193.125 12.973 193.125 15.0069C193.125 17.0279 193.989 17.7652 195.044 17.7652C196.111 17.7652 196.976 17.0279 196.976 15.0069M191.001 15.0069C191.001 11.9815 192.794 10.4685 195.044 10.4685C197.307 10.4685 199.099 11.9815 199.099 15.0069C199.099 18.033 197.294 19.5203 195.044 19.5203C192.806 19.5203 191.001 18.033 191.001 15.0069" fill="#002740"/>
<path fill-rule="evenodd" clip-rule="evenodd" d="M205.432 19.4438L202.469 14.3716V19.4438H200.423V10.5446H202.508L205.47 15.8338V10.5446H207.516V19.4438H205.432Z" fill="#002740"/>
<path fill-rule="evenodd" clip-rule="evenodd" d="M212.324 17.8165C213.557 17.8165 214.434 16.8759 214.434 15.1343C214.434 13.3669 213.774 12.1719 211.956 12.1719H211.294V17.8165H212.324ZM209.248 19.4436V10.545H211.981C214.308 10.545 216.443 11.7908 216.443 15.1601C216.443 18.3761 214.473 19.4436 212.337 19.4436H209.248Z" fill="#002740"/>
<path fill-rule="evenodd" clip-rule="evenodd" d="M217.78 19.4437H219.827V10.5445H217.78V19.4437Z" fill="#002740"/>
<path fill-rule="evenodd" clip-rule="evenodd" d="M224.073 15.8084H226.031L225.053 12.9098L224.073 15.8084ZM226.527 17.3336H223.565L222.879 19.4435H220.73L223.998 10.5449H226.108L229.362 19.4435H227.226L226.527 17.3336Z" fill="#002740"/>
<path fill-rule="evenodd" clip-rule="evenodd" d="M230.267 19.4438V10.5446H232.314V17.8168H236.064V19.4438H230.267Z" fill="#002740"/>
<path fill-rule="evenodd" clip-rule="evenodd" d="M237.057 19.4438V10.5446H242.816V12.1722H239.104V14.2319H241.939V15.8338H239.104V17.8168H242.816V19.4438H237.057Z" fill="#002740"/>
<mask id="mask0_6_1068" style="mask-type:luminance" maskUnits="userSpaceOnUse" x="0" y="0" width="34" height="34">
<path d="M20.241 27.014C22.413 26.987 24.47 26.668 26.292 26.057C26.751 25.901 27.189 25.731 27.604 25.545C27.097 26.783 26.351 27.816 25.382 28.586C23.467 29.994 21.206 30.963 18.754 31.33C19.369 30.272 19.864 28.774 20.241 27.014ZM10.035 30.02C9.99 29.985 9.94 29.95 9.885 29.924C9.031 29.508 8.686 27.604 9.132 24.695C10.77 25.431 12.558 26.017 14.433 26.418C15.856 26.721 17.274 26.912 18.658 26.982C17.978 29.935 17.108 31.486 16.532 31.486C16.494 31.486 16.46 31.492 16.424 31.498C14.138 31.481 11.971 30.956 10.035 30.02ZM2.112 20.618C1.982 20.116 1.899 19.61 1.865 19.093C2.379 19.822 3.003 20.536 3.749 21.224C4.872 22.265 6.207 23.193 7.694 23.99C7.392 25.689 7.305 27.228 7.498 28.472C4.934 26.528 3.015 23.786 2.112 20.618ZM21.211 16.492C21.211 15.891 21.201 15.29 21.184 14.688C23.094 14.56 24.865 14.065 26.314 13.23C27.656 15.884 28.376 18.685 28.37 21.33C28.369 22.094 28.302 22.822 28.181 23.51C27.491 23.934 26.696 24.299 25.803 24.6C24.216 25.133 22.429 25.426 20.534 25.475C20.992 22.743 21.211 19.573 21.211 16.492ZM14.754 24.916C12.851 24.508 11.054 23.904 9.425 23.139C9.96 20.733 10.954 17.817 12.533 14.583C12.761 14.115 12.995 13.654 13.235 13.202C14.338 13.698 15.539 14.09 16.798 14.36C17.754 14.565 18.711 14.676 19.649 14.709C19.666 15.285 19.673 15.879 19.673 16.493C19.673 20.111 19.384 23.113 18.965 25.46C17.594 25.399 16.178 25.221 14.754 24.916ZM4.792 20.094C3.486 18.891 2.589 17.612 2.132 16.344C2.494 14.923 3.194 13.496 4.228 12.129C5.207 10.833 6.424 9.667 7.821 8.665C8.222 9.393 8.788 10.103 9.505 10.777C10.188 11.417 10.984 11.997 11.868 12.504C11.623 12.965 11.386 13.434 11.155 13.91C9.792 16.703 8.678 19.701 8.026 22.421C6.812 21.733 5.722 20.954 4.792 20.094ZM20.168 5.818C21.914 7.117 23.516 8.796 24.855 10.758C25.109 11.132 25.348 11.509 25.575 11.891C24.347 12.6 22.796 13.023 21.121 13.143C20.979 10.491 20.665 7.941 20.168 5.818ZM17.121 12.857C16.008 12.619 14.951 12.278 13.978 11.852C15.412 9.344 16.981 7.163 18.526 5.54C19.009 7.443 19.415 9.998 19.588 13.168C18.773 13.136 17.945 13.034 17.121 12.857ZM10.557 9.654C9.92 9.059 9.437 8.439 9.112 7.817C10.552 6.95 12.146 6.245 13.843 5.734C14.85 5.43 15.874 5.205 16.892 5.05C15.421 6.697 13.953 8.793 12.607 11.157C11.838 10.714 11.147 10.21 10.557 9.654ZM7.25 4.76C7.23 4.838 7.208 4.917 7.19 4.997C7.035 5.723 7.053 6.464 7.236 7.201C5.583 8.341 4.145 9.69 3.001 11.204C2.652 11.665 2.34 12.135 2.057 12.611C2.908 9.465 4.76 6.726 7.25 4.76ZM8.692 5.317C8.863 4.52 9.342 3.807 10.084 3.218C11.876 2.682 13.963 2.811 16.156 3.614C15.234 3.774 14.311 3.988 13.4 4.262C11.706 4.771 10.106 5.466 8.642 6.311C8.608 5.976 8.623 5.643 8.692 5.317ZM21.156 3.294C21.685 2.954 22.17 2.718 22.575 2.622C23.346 2.932 24.109 3.326 24.833 3.824C23.672 3.534 22.437 3.356 21.156 3.294ZM18.569 1.649C19.193 1.718 19.858 1.826 20.541 1.985C20.113 2.214 19.668 2.503 19.219 2.847C19.018 2.394 18.801 1.993 18.569 1.649ZM16.904 2.251C16.209 1.986 15.522 1.78 14.845 1.632C15.388 1.572 15.938 1.537 16.497 1.536C16.758 1.539 17.08 1.853 17.417 2.461C17.247 2.391 17.075 2.318 16.904 2.251ZM0 16.518C0 18.087 0.226 19.606 0.637 21.046C0.662 21.146 0.684 21.239 0.713 21.339C0.72 21.355 0.728 21.372 0.734 21.392C2.818 28.128 9.106 33.037 16.52 33.037C19.949 33.037 23.138 31.988 25.781 30.189C25.806 30.177 25.834 30.162 25.858 30.146C26.014 30.039 26.167 29.927 26.314 29.812C29.353 27.564 31.598 24.304 32.543 20.533C32.596 20.357 32.642 20.181 32.68 20.002C32.69 19.961 32.691 19.92 32.696 19.879C32.919 18.793 33.037 17.668 33.037 16.52C33.037 14.291 32.601 12.128 31.74 10.091C31.575 9.699 31.125 9.516 30.735 9.681C30.343 9.846 30.161 10.297 30.326 10.688C31.108 12.533 31.503 14.495 31.503 16.518C31.503 17.758 31.348 18.963 31.063 20.115C30.836 20.842 30.437 21.513 29.885 22.127C29.9 21.865 29.907 21.6 29.908 21.332C29.914 18.385 29.099 15.273 27.587 12.346C28.695 11.394 29.401 10.22 29.646 8.902C29.723 8.485 29.447 8.085 29.03 8.008C28.613 7.929 28.211 8.206 28.135 8.624C27.975 9.495 27.523 10.292 26.817 10.97C26.597 10.607 26.368 10.246 26.127 9.891C24.778 7.913 23.176 6.203 21.422 4.839C23.737 4.991 25.878 5.551 27.598 6.514C27.869 6.668 28.228 6.663 28.48 6.453C28.807 6.181 28.85 5.696 28.578 5.37C26.1 1.908 21.82 0 16.519 0C7.411 0 0 7.411 0 16.518Z" fill="white"/>
</mask>
<g mask="url(#mask0_6_1068)">
<path d="M33.035 0H0V33.036H33.035V0Z" fill="url(#paint0_radial_6_1068)"/>
</g>
<defs>
<radialGradient id="paint0_radial_6_1068" cx="0" cy="0" r="1" gradientUnits="userSpaceOnUse" gradientTransform="translate(31.5721 6.18252) scale(27.407 27.4071)">
<stop stop-color="white"/>
<stop offset="0.0598" stop-color="#E8F6FE"/>
<stop offset="0.1829" stop-color="#B1E3FA"/>
<stop offset="0.3589" stop-color="#3EC7F3"/>
<stop offset="0.544" stop-color="#2BACE2"/>
<stop offset="1" stop-color="#113154"/>
</radialGradient>
</defs>
</svg>
